# xmcd
#
# Track frame offsets: 
#        150
#        16662
#        32980
#        48800
#        64525
#        81602
#        95207
#        109075
#        125300
#        139887
#
# Disc length: 2091 seconds
#
# Revision: 2
# Processed by: cddbd v1.5PL3 Copyright (c) Steve Scherf et al.
# Submitted via: ExactAudioCopy v0.95a4
#
DISCID=8408290a
DTITLE=Shenandoah - Extra Mile
DYEAR=1990
DGENRE=Country
TTITLE0=Next To You, Next To Me
TTITLE1=Ghost In This House
TTITLE2=She Makes The Coming Home (Worth The Being Gone)
TTITLE3=She's A Natural
TTITLE4=I Got You
TTITLE5=Puttin' New Roots Down
TTITLE6=When You Were Mine
TTITLE7=Goin' Down With My Pride
TTITLE8=The Moon Over Georgia
TTITLE9=Daddy's Little Man
EXTD=
EXTT0=
EXTT1=
EXTT2=
EXTT3=
EXTT4=
EXTT5=
EXTT6=
EXTT7=
EXTT8=
EXTT9=
PLAYORDER=
